<svg id="Слой_1" data-name="Слой 1" xmlns="http://www.w3.org/2000/svg" viewBox="0 0 116.72 24.75"><title>log</title><path d="M63.8,13.43H61.68L59.09,5.06l-.23,0-2.59,8.4H54.14L49.8,1h2.27l3,8.65.19,0L58,.94h1.92l2.71,8.69.18,0L65.88.95h2.27Z" transform="translate(-1.3 -0.61)"/><path d="M34.55,13.4V1c2.08,0,4.12,0,6.15,0a5.3,5.3,0,0,1,1.59.33,3,3,0,0,1,2.08,2.32c.34,1.73.27,3.38-1.25,4.61A9.59,9.59,0,0,1,41.91,9l3.14,4.42H42.39L39.44,9.29H36.66V13.4Zm2.14-5.95c1.55-.14,3-.17,4.4-.43.93-.17,1.29-1,1.25-2.23,0-1-.4-1.63-1.39-1.76-1.39-.19-2.8-.17-4.26-.25Z" transform="translate(-1.3 -0.61)"/><path d="M90,.9c2.54.1,5-.28,7.47.37A3.13,3.13,0,0,1,99.87,4c.37,2.36-.25,3.63-2.53,5l3.13,4.39H97.79l-2.93-4.1H92.09v4.12H90Zm2.14,6.54c1.51-.13,3-.16,4.36-.39.87-.14,1.24-.9,1.26-2s-.26-1.67-1-1.91c-1.51-.49-3.06-.24-4.62-.29Z" transform="translate(-1.3 -0.61)"/><path d="M21.6,13.56A6.35,6.35,0,0,1,15,7,6.4,6.4,0,0,1,21.56.61,6.44,6.44,0,0,1,28.17,7,6.38,6.38,0,0,1,21.6,13.56Zm-.1-1.94A4.43,4.43,0,0,0,26,7.18a4.42,4.42,0,1,0-8.83-.11A4.43,4.43,0,0,0,21.5,11.61Z" transform="translate(-1.3 -0.61)"/><path d="M106.79.87c2.52.17,5-.31,7.44.53A5.47,5.47,0,0,1,118,6.5c.08,1.83-.13,3.63-1.52,5A7.8,7.8,0,0,1,114,13a21.65,21.65,0,0,1-7.23.34Zm2.11,10.52a24.49,24.49,0,0,0,3.35,0,4.26,4.26,0,0,0,3-6.66,3.49,3.49,0,0,0-1.29-1.19c-1.58-.81-3.3-.64-5-.59Z" transform="translate(-1.3 -0.61)"/><path d="M74.93,10.65l-1.27,2.78H71.42L76.91.93h2.31L84.7,13.4H82.45L81.2,10.65Zm3.25-6.91-.23,0L75.82,8.61H80.3Z" transform="translate(-1.3 -0.61)"/><path d="M3.37,13.42H1.3V1H9.52V2.88H3.4V6.33H8.84V8.28H3.37Z" transform="translate(-1.3 -0.61)"/><path d="M66.68,19.29h1.08v6H66.61L63.15,20.9v4.43h-1v-6h1.12l3.44,4.41Z" transform="translate(-1.3 -0.61)"/><path d="M50.13,24l-.61,1.33h-1.1l2.64-6h1.2l2.66,6H53.85L53.18,24Zm2.64-1-1.1-2.52L50.57,23Z" transform="translate(-1.3 -0.61)"/><path d="M42.73,23.71v1.62H41.67v-6a27.46,27.46,0,0,1,3.22,0c1.05.12,1.59,1,1.57,2.24a1.79,1.79,0,0,1-1.65,1.91C44.15,23.59,43.49,23.63,42.73,23.71Zm0-3.5v2.53c.62-.06,1.18-.11,1.73-.18.78-.11.88-.69.86-1.32a1,1,0,0,0-1-1C43.82,20.18,43.31,20.21,42.77,20.21Z" transform="translate(-1.3 -0.61)"/><path d="M72.65,20.18H70.8l0-.87h4.79v.88h-1.8v5.14h-1.1Z" transform="translate(-1.3 -0.61)"/><path d="M58.56,25.35h-1v-6h1Z" transform="translate(-1.3 -0.61)"/></svg>